<svg xmlns="http://www.w3.org/2000/svg" viewBox="0 0 122.94 19.47"><title>awwards</title><path d="M115.54,7.53l-2,1.85a3,3,0,0,0-2.3-1.2A1.14,1.14,0,0,0,110,9.33c0,.6.49,1,1.31,1.33,1.88.68,5,1.28,5,4.23a4.6,4.6,0,0,1-4.88,4.58,6,6,0,0,1-5.45-3.71l2.7-1.44a3,3,0,0,0,2.75,2.26c1,0,1.69-.46,1.69-1.47s-1.77-1.39-3.43-2.1c-1.5-.63-2.79-1.58-2.79-3.71a4.11,4.11,0,0,1,4.39-4,5,5,0,0,1,4.31,2.24"/><path d="M70.73,16.59a3,3,0,0,0,3.18-2.83v-.27H71.65c-1.44,0-2.34.54-2.34,1.77a1.32,1.32,0,0,0,1.42,1.33M66.29,9.14c.44-2.26,2.42-3.81,5.23-3.81,3.26,0,5.76,1.36,5.76,5.74v8.18H74.51l-.36-1.74a5.09,5.09,0,0,1-4.21,2,3.89,3.89,0,0,1-4.16-4.16c0-2.72,2.39-4.49,5.84-4.49h2.29v-.59c0-1.53-1.14-2-2.39-2a2.24,2.24,0,0,0-2.37,1.58Z"/><path d="M80.34,19.25V5.55h3.37V7.78a4.77,4.77,0,0,1,4.05-2.45,5.66,5.66,0,0,1,1.66.27l-.63,3.13a2.54,2.54,0,0,0-1.41-.38c-2,0-3.67,1.6-3.67,6v4.86Z"/><path d="M97.1,16.59c1.77,0,3.15-1.47,3.15-4.19S98.87,8.21,97.1,8.21s-3.18,1.47-3.18,4.19,1.41,4.19,3.18,4.19M96.64,5.33A4.47,4.47,0,0,1,100,6.8V0h3.38V19.25H100V17.84a3.87,3.87,0,0,1-3.31,1.63c-4.14,0-6.26-2.85-6.26-7.07s2.12-7.07,6.26-7.07"/><path d="M120.66,14.85a2.29,2.29,0,1,1-2.29,2.28,2.23,2.23,0,0,1,2.29-2.28"/><path d="M5,16.59a3,3,0,0,0,3.18-2.83v-.27H5.87c-1.44,0-2.33.54-2.33,1.77A1.32,1.32,0,0,0,5,16.59M.52,9.14C1,6.88,2.94,5.33,5.74,5.33c3.26,0,5.76,1.36,5.76,5.74v8.18H8.73l-.35-1.74a5.11,5.11,0,0,1-4.22,2A3.89,3.89,0,0,1,0,15.31c0-2.72,2.39-4.49,5.85-4.49H8.13v-.59c0-1.53-1.14-2-2.39-2A2.25,2.25,0,0,0,3.37,9.79Z"/><polygon points="32.32 5.55 27.94 19.25 24.95 19.25 22.58 10.39 20.22 19.25 17.23 19.25 12.85 5.55 16.25 5.55 18.7 14.96 21.01 5.55 24.16 5.55 26.47 14.96 28.92 5.55 32.32 5.55"/><polygon points="45.22 5.55 42.77 14.96 40.46 5.55 37.31 5.55 34.99 14.96 33.07 9.49 32.87 10.12 31.75 13.64 33.53 19.25 36.52 19.25 38.88 10.39 41.25 19.25 44.24 19.25 48.62 5.55 45.22 5.55"/><polygon points="61.52 5.55 59.07 14.96 56.76 5.55 53.6 5.55 51.29 14.96 49.37 9.49 49.17 10.12 48.05 13.64 49.83 19.25 52.82 19.25 55.18 10.39 57.55 19.25 60.54 19.25 64.92 5.55 61.52 5.55"/></svg>