<?xml version="1.0" encoding="utf-8"?>
<!-- Generator: Adobe Illustrator 23.0.4, SVG Export Plug-In . SVG Version: 6.00 Build 0)  -->
<svg version="1.1" id="Artwork" xmlns="http://www.w3.org/2000/svg" xmlns:xlink="http://www.w3.org/1999/xlink" x="0px" y="0px"
	 viewBox="0 0 165.5 106" style="enable-background:new 0 0 165.5 106;" xml:space="preserve">
<style type="text/css">
	.st0{fill:#DA001E;}
</style>
<g>
	<g>
		<g>
			<path class="st0" d="M124.3,50.2l22.3,26.5c4.6-6.7,7.3-14.8,7.3-23.5c0-9.2-3-17.7-8.1-24.6L124.3,50.2z"/>
			<path class="st0" d="M61.1,26.4c16.7,0,29.2,4.2,30.5,18.3l17.5-18.3h34.9c-7.6-8.9-18.9-14.5-31.5-14.5H45.5
				c-12.6,0-23.9,5.6-31.5,14.5H61.1z"/>
			<path class="st0" d="M33.6,44.1l-6,16.4h24c7.1,0,9.2-2.9,10.8-8.6c1.6-5.6-2.4-7.8-7.2-7.8H33.6z"/>
			<path class="st0" d="M109.3,79L90.7,55.5C87.3,71.5,76.1,79,55,79h-42c7.6,9.5,19.3,15.7,32.4,15.7h67.1
				c13.1,0,24.8-6.1,32.4-15.7H109.3z"/>
		</g>
	</g>
</g>
</svg>
