<?xml version="1.0" encoding="utf-8"?>
<!-- Generator: Adobe Illustrator 23.1.1, SVG Export Plug-In . SVG Version: 6.00 Build 0)  -->
<svg version="1.1" id="Layer_1" xmlns="http://www.w3.org/2000/svg" xmlns:xlink="http://www.w3.org/1999/xlink" x="0px" y="0px"
	 viewBox="0 0 286.3 124.7" style="enable-background:new 0 0 286.3 124.7;" xml:space="preserve">
<style type="text/css">
	.st0{fill:#BAAD96;}
	.st1{fill:url(#SVGID_1_);}
	.st2{fill:url(#SVGID_2_);}
	.st3{fill:url(#SVGID_3_);}
	.st4{fill:url(#SVGID_4_);}
	.st5{fill:url(#SVGID_5_);}
	.st6{fill:url(#SVGID_6_);}
	.st7{fill:url(#SVGID_7_);}
	.st8{fill:url(#SVGID_8_);}
	.st9{fill:url(#SVGID_9_);}
	.st10{fill:url(#SVGID_10_);}
	.st11{fill:url(#SVGID_11_);}
	.st12{fill:url(#SVGID_12_);}
	.st13{fill:url(#SVGID_13_);}
</style>
<g>
	<g>
		<g>
			<path d="M36.7,71h-2.5c0,0-9,8.3-9.7,9c-0.1-0.4-0.2-0.8-0.2-1.8c0-2.9,1.8-4,3.5-4c0.3,0,1,0,1.7,0.4l2.8-3.1
				c-0.7-0.3-2.1-1-4.5-1c-5,0-8.6,3.1-8.6,7.5c0,4.7,2.9,8,8.6,8c5.4,0,8.6-3.1,8.6-8c0-3-1.6-4.7-2-5L36.7,71z M27.7,82.4
				c-1.1,0-1.9-0.4-2.5-0.9c0,0,5.6-5.1,5.7-5.2c0.1,0.1,0.3,0.7,0.3,1.9C31.2,79.4,30.9,82.4,27.7,82.4z"/>
			<path d="M50.6,80.4L48.2,80c2,0,5.1-0.7,5.1-4.6c0-3.9-3.9-4.3-6.9-4.3c-3,0-7.8,0-7.8,0v14.6h5.1v-5.1h1.4l3.3,5.1h6.1
				L50.6,80.4z M45.8,77.5c-1.7,0-2.1,0-2.1,0v-3.4c0,0,0.5,0,2.1,0c1.6,0,2.5,0.4,2.5,1.7C48.2,77.1,47.4,77.5,45.8,77.5z"/>
			<path d="M54.8,84.2c0,0,2.1-2.9,2.2-3c0.7,0.5,2.3,1.5,4.7,1.5c2.5,0,2.8-0.7,2.8-1.2c0-0.8-1.1-1.1-2.8-1.3
				c-1-0.1-6.9-0.3-6.9-4.5c0-4.1,4.3-5.1,7.1-5.1c3.2,0,5.5,0.6,7.1,1.4c0,0-2,2.8-2.2,3c-0.5-0.4-2.2-0.9-4-0.9
				c-1.8,0-2.8,0.4-2.8,1.1c0,0.8,0.6,1,3.9,1.3c3.4,0.3,5.7,1.4,5.7,4.5c0,3-2.4,5.1-7.7,5.1C57.4,86.1,55.3,84.5,54.8,84.2z"/>
			<polygon points="71.6,85.6 71.6,71.1 84.9,71.1 84.9,74.2 76.7,74.2 76.7,76.8 83.3,76.8 83.3,79.9 76.7,79.9 76.7,82.5 85,82.5 
				85,85.6 			"/>
			<rect x="104.7" y="80.9" width="4.8" height="4.8"/>
			<path d="M87.1,85.6V71.1h5.4c0,0,3.6,5.5,3.6,5.5c1.5,2.4,2.3,4,2.3,4l-0.5-3.8v-5.7h4.8v14.6h-5.5l-4.2-6.5c0,0-0.4-0.6-0.8-1.4
				c-0.4-0.8-0.8-1.5-0.8-1.5l0.6,3.6v5.8H87.1z"/>
			<path d="M16,78.5c-0.6-0.1-2.3-0.4-2.3-0.4l2.1-0.4c0.6-0.3,1.6-1.3,1.6-3.1c0-2.9-2.6-3.6-5.9-3.6c-4.2,0-9,0-9,0v14.6
				c0,0,5.7,0,9.1,0c4,0,6.1-1.1,6.1-4.2C17.9,79.8,16.8,78.8,16,78.5z M7.6,74.1c0,0,1.9,0,3,0c1.2,0,1.6,0.6,1.6,1.2
				s-0.1,1.4-1.6,1.4s-3,0-3,0V74.1z M10.7,82.5c-1.7,0-3,0-3,0v-2.8c0,0,1.6,0,3,0c1.4,0,2,0.5,2,1.4
				C12.7,81.9,12.2,82.5,10.7,82.5z"/>
		</g>
		<g>
			<path class="st0" d="M24.7,117.6c-0.5,0.3-1.1,0.6-1.9,0.9c-0.7,0.3-1.5,0.6-2.3,0.8c-0.8,0.2-1.6,0.4-2.4,0.6
				c-0.8,0.2-1.5,0.2-2.2,0.2c-2.2,0-4.2-0.3-6-0.9c-1.8-0.6-3.3-1.5-4.5-2.8c-1.2-1.2-2.2-2.8-2.9-4.7c-0.7-1.9-1-4.1-1-6.8
				c0-2.7,0.4-5,1.2-7c0.8-1.9,1.8-3.5,3.2-4.7c1.3-1.2,2.8-2.1,4.5-2.6c1.7-0.5,3.4-0.8,5.1-0.8c1.8,0,3.4,0.1,4.6,0.4
				c1.3,0.2,2.4,0.6,3.3,1.1c0,0.4,0,0.9,0,1.5c0,0.6-0.1,1.2-0.1,1.9c-0.1,0.7-0.1,1.3-0.2,2c-0.1,0.7-0.2,1.2-0.2,1.7h-1.1l-2.2-6
				c-0.3-0.2-0.8-0.3-1.5-0.3c-0.7-0.1-1.4-0.1-2.1-0.1c-1.4,0-2.7,0.3-3.9,0.8c-1.2,0.5-2.3,1.3-3.3,2.4c-0.9,1.1-1.7,2.4-2.2,4
				c-0.6,1.6-0.8,3.5-0.8,5.7c0,2,0.3,3.8,0.8,5.3c0.5,1.6,1.3,2.9,2.2,4.1c1,1.1,2.1,2,3.4,2.6c1.3,0.6,2.7,0.9,4.2,0.9
				c0.6,0,1.1-0.1,1.6-0.2c0.5-0.1,1-0.2,1.5-0.4c0.4-0.2,0.8-0.3,1.1-0.5c0.3-0.2,0.5-0.3,0.6-0.4v-8.4c-0.7-0.1-1.4-0.2-2.1-0.4
				c-0.7-0.2-1.3-0.4-1.9-0.6v-1.2h10.2v1.2c-0.3,0.2-0.6,0.4-1,0.5c-0.4,0.2-0.9,0.3-1.6,0.5V117.6z"/>
			<path class="st0" d="M35.3,119.6H26v-1.2c1-0.4,2-0.8,3-1l10.5-27.5h1.2l10.5,27.5c0.6,0.1,1.1,0.2,1.6,0.4
				c0.5,0.1,1,0.3,1.5,0.6v1.2H43.8v-1.2c0.6-0.2,1.1-0.4,1.7-0.6c0.6-0.2,1.2-0.3,1.7-0.4l-2.8-7.6h-9.9l-2.7,7.6
				c1.2,0.2,2.4,0.5,3.6,1V119.6z M35.3,107.6h8.4l-3.3-8.8l-0.8-3.6h-0.1l-1,3.7L35.3,107.6z"/>
			<path class="st0" d="M76.3,111.6h1.1c0.1,0.6,0.2,1.2,0.2,1.9c0.1,0.7,0.1,1.4,0.2,2.1c0,0.7,0.1,1.4,0.1,2.1c0,0.7,0,1.3,0,1.9
				H55.7v-2.1l17.3-24.9H60.2l-2.5,5.8h-1c-0.1-0.6-0.2-1.2-0.2-1.9c-0.1-0.7-0.1-1.4-0.2-2.1c0-0.7-0.1-1.4-0.1-2.1
				c0-0.7,0-1.3,0-1.9h21.3v2.2l-17.3,24.8h13.6L76.3,111.6z"/>
			<path class="st0" d="M101,90.4c0,1.1-0.1,2.2-0.1,3.4c-0.1,1.1-0.2,2.3-0.3,3.4h-1.1l-1.7-4.6h-9.1v11h6.8l1.6-3.1h1
				c0.2,2.8,0.2,5.6,0,8.4h-1l-1.6-3.2h-6.8v11.6h9.6l2-5h1c0.2,1.2,0.3,2.3,0.4,3.5c0.1,1.2,0.1,2.4,0,3.6H81.3v-1.2
				c1-0.4,2.1-0.8,3.4-1V92.7c-0.6-0.1-1.1-0.3-1.7-0.4c-0.6-0.2-1.2-0.4-1.7-0.6v-1.2H101z"/>
			<path class="st0" d="M106,90.4h11.4v1.2c-0.7,0.3-1.3,0.5-2,0.6c-0.7,0.2-1.3,0.3-2,0.4v24.8h9.6l2.5-6.7h1.1
				c0.1,0.6,0.2,1.3,0.2,2c0.1,0.8,0.1,1.6,0.2,2.4c0,0.8,0.1,1.6,0.1,2.4c0,0.8,0,1.5,0,2.1h-21v-1.2c0.7-0.3,1.3-0.5,1.8-0.7
				c0.6-0.1,1.1-0.3,1.6-0.3V92.7c-0.6-0.1-1.3-0.3-1.8-0.4c-0.6-0.2-1.1-0.4-1.6-0.6V90.4z"/>
			<path class="st0" d="M129.2,90.4h11.4v1.2c-0.7,0.3-1.3,0.5-2,0.6c-0.7,0.2-1.3,0.3-2,0.4v24.8h9.6l2.5-6.7h1.1
				c0.1,0.6,0.2,1.3,0.2,2c0.1,0.8,0.1,1.6,0.2,2.4c0,0.8,0.1,1.6,0.1,2.4c0,0.8,0,1.5,0,2.1h-21v-1.2c0.7-0.3,1.3-0.5,1.8-0.7
				c0.6-0.1,1.1-0.3,1.6-0.3V92.7c-0.6-0.1-1.3-0.3-1.8-0.4c-0.6-0.2-1.1-0.4-1.6-0.6V90.4z"/>
			<path class="st0" d="M171.8,90.4c0,1.1-0.1,2.2-0.1,3.4c-0.1,1.1-0.2,2.3-0.3,3.4h-1.1l-1.7-4.6h-9.1v11h6.8l1.6-3.1h1
				c0.2,2.8,0.2,5.6,0,8.4h-1l-1.6-3.2h-6.8v11.6h9.6l2-5h1c0.2,1.2,0.3,2.3,0.4,3.5c0.1,1.2,0.1,2.4,0,3.6H152v-1.2
				c1-0.4,2.1-0.8,3.4-1V92.7c-0.6-0.1-1.1-0.3-1.7-0.4c-0.6-0.2-1.2-0.4-1.7-0.6v-1.2H171.8z"/>
		</g>
	</g>
	<g>
		
			<linearGradient id="SVGID_1_" gradientUnits="userSpaceOnUse" x1="256.4026" y1="117.4175" x2="283.0076" y2="117.4175" gradientTransform="matrix(1.0056 -0.1695 5.000000e-04 0.9943 0.3275 -7.1423)">
			<stop  offset="0" style="stop-color:#D2C6B2"/>
			<stop  offset="1" style="stop-color:#948777"/>
		</linearGradient>
		<polygon class="st1" points="258.2,77.8 260.9,77.8 285,53.6 282.8,49.9 		"/>
		
			<linearGradient id="SVGID_2_" gradientUnits="userSpaceOnUse" x1="250.8424" y1="53.5619" x2="280.3804" y2="53.5619" gradientTransform="matrix(1 -0.1078 0 1 0 -6.3739)">
			<stop  offset="0" style="stop-color:#D2C6B2"/>
			<stop  offset="1" style="stop-color:#948777"/>
		</linearGradient>
		<polygon class="st2" points="255.7,11 279.5,17.7 279.5,19.9 250.9,28.8 		"/>
		<linearGradient id="SVGID_3_" gradientUnits="userSpaceOnUse" x1="255.6662" y1="10.8611" x2="227.6439" y2="10.8611">
			<stop  offset="0" style="stop-color:#D2C6B2"/>
			<stop  offset="1" style="stop-color:#948777"/>
		</linearGradient>
		<polygon class="st3" points="255.7,11 227.5,3 253.6,18.7 		"/>
		<linearGradient id="SVGID_4_" gradientUnits="userSpaceOnUse" x1="242.4051" y1="16.7243" x2="254.1074" y2="16.7243">
			<stop  offset="0" style="stop-color:#D2C6B2"/>
			<stop  offset="1" style="stop-color:#948777"/>
		</linearGradient>
		<polygon class="st4" points="255.7,11 243,19.5 248,22.5 253.6,18.7 		"/>
		<linearGradient id="SVGID_5_" gradientUnits="userSpaceOnUse" x1="272.7768" y1="45.9928" x2="257.6801" y2="25.9065">
			<stop  offset="0" style="stop-color:#D2C6B2"/>
			<stop  offset="0.2019" style="stop-color:#CEC1AE"/>
			<stop  offset="0.4606" style="stop-color:#C1B4A1"/>
			<stop  offset="0.7487" style="stop-color:#AC9F8D"/>
			<stop  offset="1" style="stop-color:#948777"/>
		</linearGradient>
		<polygon class="st5" points="250.9,28.8 259.9,40.1 268.8,51.5 275.7,38 264.7,24.5 		"/>
		<linearGradient id="SVGID_6_" gradientUnits="userSpaceOnUse" x1="259.9204" y1="55.7095" x2="235.6433" y2="55.7095">
			<stop  offset="0" style="stop-color:#D2C6B2"/>
			<stop  offset="1" style="stop-color:#948777"/>
		</linearGradient>
		<polygon class="st6" points="235.4,54 259.9,40.1 241.7,71.3 		"/>
		<linearGradient id="SVGID_7_" gradientUnits="userSpaceOnUse" x1="242.4218" y1="63.0567" x2="229.8843" y2="61.9108">
			<stop  offset="0" style="stop-color:#D2C6B2"/>
			<stop  offset="1" style="stop-color:#948777"/>
		</linearGradient>
		<polygon class="st7" points="228.3,70.2 241.7,71.3 235.4,54 		"/>
		
			<linearGradient id="SVGID_8_" gradientUnits="userSpaceOnUse" x1="227.6241" y1="101.6481" x2="212.6087" y2="99.7371" gradientTransform="matrix(1 -0.1078 0 1 0 -6.3739)">
			<stop  offset="0" style="stop-color:#D2C6B2"/>
			<stop  offset="1" style="stop-color:#948777"/>
		</linearGradient>
		<polygon class="st8" points="217.7,54.6 235.4,54 225,77.7 207,87.2 		"/>
		<linearGradient id="SVGID_9_" gradientUnits="userSpaceOnUse" x1="208.0122" y1="84.8919" x2="193.2783" y2="84.8919">
			<stop  offset="0" style="stop-color:#D2C6B2"/>
			<stop  offset="1" style="stop-color:#948777"/>
		</linearGradient>
		<polygon class="st9" points="197.1,84.6 211.3,74.2 207,87.2 191.8,95.6 		"/>
		
			<linearGradient id="SVGID_10_" gradientUnits="userSpaceOnUse" x1="197.477" y1="130.0586" x2="179.1688" y2="156.9951" gradientTransform="matrix(1.0056 -0.1695 5.000000e-04 0.9943 0.3275 -7.1423)">
			<stop  offset="0" style="stop-color:#D2C6B2"/>
			<stop  offset="1" style="stop-color:#948777"/>
		</linearGradient>
		<polygon class="st10" points="182.6,119.7 200.7,90.7 191.8,95.6 180,119.7 		"/>
		<linearGradient id="SVGID_11_" gradientUnits="userSpaceOnUse" x1="214.1962" y1="60.8764" x2="205.9782" y2="60.0937">
			<stop  offset="0" style="stop-color:#D2C6B2"/>
			<stop  offset="1" style="stop-color:#948777"/>
		</linearGradient>
		<polygon class="st11" points="205.3,66.7 213.5,67.4 217.7,54.6 		"/>
		<linearGradient id="SVGID_12_" gradientUnits="userSpaceOnUse" x1="252.8995" y1="53.7132" x2="264.2061" y2="45.8973">
			<stop  offset="0" style="stop-color:#D2C6B2"/>
			<stop  offset="0.2189" style="stop-color:#CABDAA"/>
			<stop  offset="0.6019" style="stop-color:#B2A694"/>
			<stop  offset="1" style="stop-color:#948777"/>
		</linearGradient>
		<polygon class="st12" points="259.9,40.1 268.8,51.5 252.2,53.3 		"/>
		<linearGradient id="SVGID_13_" gradientUnits="userSpaceOnUse" x1="284.2149" y1="60.7669" x2="252.3439" y2="60.5772">
			<stop  offset="0" style="stop-color:#D2C6B2"/>
			<stop  offset="0.215" style="stop-color:#CFC2AE"/>
			<stop  offset="0.4536" style="stop-color:#C4B7A4"/>
			<stop  offset="0.7033" style="stop-color:#B2A593"/>
			<stop  offset="0.9594" style="stop-color:#988C7B"/>
			<stop  offset="1" style="stop-color:#948777"/>
		</linearGradient>
		<polygon class="st13" points="252.2,53.3 282.8,49.9 285,53.6 241.7,71.3 		"/>
	</g>
</g>
<g>
	<path class="st0" d="M197.4,109.1h-0.5c-0.2-0.4-0.3-0.9-0.5-1.4c-0.2-0.5-0.3-1.1-0.4-1.5c0.5-0.4,1.1-0.7,1.7-1
		c0.7-0.2,1.4-0.4,2.2-0.4c0.7,0,1.3,0.1,1.8,0.3s0.9,0.5,1.2,0.8s0.6,0.7,0.7,1.2c0.2,0.4,0.2,0.9,0.2,1.4c0,0.8-0.2,1.6-0.5,2.4
		c-0.4,0.8-0.8,1.6-1.3,2.4c-0.5,0.8-1.1,1.5-1.7,2.2c-0.6,0.7-1.2,1.3-1.7,1.8l-0.9,0.8v0.1l1.2-0.1h3.6l1-2.3h0.5
		c0,0.3,0.1,0.6,0.1,1c0,0.4,0.1,0.7,0.1,1.1c0,0.4,0,0.7,0.1,1.1s0,0.6,0,0.9h-8.6v-0.7c0.3-0.3,0.7-0.7,1.1-1.2
		c0.4-0.5,0.9-1,1.4-1.5c0.5-0.6,0.9-1.1,1.4-1.8c0.5-0.6,0.9-1.3,1.2-1.9c0.4-0.6,0.7-1.3,0.9-1.9c0.2-0.6,0.3-1.2,0.3-1.8
		c0-0.4-0.1-0.8-0.2-1.1s-0.3-0.7-0.5-0.9c-0.2-0.3-0.5-0.5-0.8-0.6c-0.3-0.2-0.6-0.2-1-0.2c-0.3,0-0.5,0-0.8,0.1
		c-0.2,0-0.5,0.1-0.7,0.2L197.4,109.1z"/>
	<path class="st0" d="M205.9,112.3c0-2.5,0.4-4.4,1.2-5.6c0.8-1.3,2-1.9,3.6-1.9c1.7,0,2.9,0.6,3.7,1.9c0.8,1.2,1.2,3.1,1.2,5.7
		c0,2.5-0.4,4.4-1.3,5.6c-0.8,1.3-2.1,1.9-3.7,1.9c-0.8,0-1.6-0.2-2.2-0.5s-1.1-0.8-1.5-1.5c-0.4-0.6-0.6-1.4-0.8-2.4
		S205.9,113.5,205.9,112.3z M207.9,112.3c0,1,0,1.9,0.1,2.7c0.1,0.8,0.3,1.5,0.5,2.1c0.2,0.6,0.5,1,0.8,1.4c0.3,0.3,0.8,0.5,1.2,0.5
		c1.1,0,1.9-0.5,2.3-1.6c0.4-1.1,0.7-2.8,0.7-5c0-1,0-1.9-0.1-2.7s-0.2-1.5-0.5-2.1c-0.2-0.6-0.5-1-0.9-1.3
		c-0.4-0.3-0.8-0.5-1.4-0.5c-1,0-1.8,0.5-2.2,1.6C208.1,108.4,207.9,110.1,207.9,112.3z"/>
	<path class="st0" d="M223.7,119.6h-6.1V119c0.3-0.2,0.7-0.3,1-0.4c0.4-0.1,0.7-0.2,1.1-0.3v-10.2l0.1-1.2c-0.4,0.2-0.8,0.3-1.2,0.3
		c-0.4,0.1-0.8,0.1-1.3,0.1l-0.1-0.5c0.6-0.2,1.3-0.5,2-0.8s1.3-0.7,1.9-1.2h0.5v13.5c0.3,0.1,0.7,0.2,1,0.3c0.3,0.1,0.7,0.3,1,0.4
		V119.6z"/>
	<path class="st0" d="M224.8,109.5c0-0.7,0.1-1.3,0.3-1.9c0.2-0.6,0.5-1.1,0.9-1.5c0.4-0.4,0.9-0.7,1.5-1c0.6-0.2,1.2-0.4,2-0.4
		c0.8,0,1.5,0.1,2.1,0.4s1.1,0.6,1.5,1.1c0.4,0.5,0.7,1.1,0.9,1.8c0.2,0.7,0.3,1.5,0.3,2.3c0,1.3-0.2,2.5-0.6,3.6
		c-0.4,1.1-0.9,2.1-1.5,2.9c-0.6,0.8-1.4,1.5-2.3,2c-0.9,0.5-1.8,0.8-2.8,1l-0.4-0.6c0.8-0.2,1.5-0.5,2.2-1c0.6-0.4,1.2-0.9,1.6-1.5
		c0.4-0.6,0.8-1.2,1.1-2c0.3-0.7,0.5-1.5,0.6-2.3c-0.3,0.3-0.7,0.6-1.1,0.8c-0.4,0.2-1,0.3-1.8,0.3c-0.6,0-1.2-0.1-1.7-0.3
		s-1-0.5-1.3-0.8c-0.4-0.4-0.7-0.8-0.9-1.3C224.9,110.7,224.8,110.1,224.8,109.5z M226.8,109.4c0,0.4,0.1,0.8,0.2,1.2
		c0.1,0.4,0.3,0.7,0.5,1c0.2,0.3,0.5,0.5,0.9,0.7s0.7,0.3,1.1,0.3c0.7,0,1.2-0.1,1.6-0.3c0.4-0.2,0.8-0.5,1-0.9c0-0.2,0-0.4,0-0.7
		s0-0.5,0-0.6c0-0.5-0.1-1-0.2-1.5s-0.3-1-0.5-1.4c-0.2-0.4-0.5-0.8-0.9-1c-0.4-0.3-0.8-0.4-1.3-0.4c-0.8,0-1.5,0.3-1.9,1
		C227,107.4,226.8,108.3,226.8,109.4z"/>
</g>
</svg>
