<?xml version="1.0" encoding="utf-8"?>
<!-- Generator: Adobe Illustrator 25.0.0, SVG Export Plug-In . SVG Version: 6.00 Build 0)  -->
<svg version="1.1" id="Lag_1" xmlns="http://www.w3.org/2000/svg" xmlns:xlink="http://www.w3.org/1999/xlink" x="0px" y="0px"
	 viewBox="0 0 144.6 34" style="enable-background:new 0 0 144.6 34;" xml:space="preserve">
<style type="text/css">
	.st0{fill:#FFFFFF;}
	.st1{font-family:'ArialMT';}
	.st2{font-size:5.818px;}
	.st3{fill:#EAE6E3;}
	.st4{fill:#E30421;}
	.st5{fill:#9B9B9B;}
</style>
<text transform="matrix(1 0 0 1 7.8326 17.167)" class="st0 st1 st2">Vi støtter</text>
<text transform="matrix(1 0 0 1 7.8326 24.167)" class="st0 st1 st2">2019</text>
<g>
	<rect x="2.2" y="1.6" class="st0" width="140.9" height="30.7"/>
	<path class="st3" d="M143,1.8v30.4H2.4V1.8H143 M143.3,1.5H2.1v31h141.2V1.5L143.3,1.5z"/>
</g>
<g>
	<g>
		<path d="M18.1,10.5c-0.5-0.4-1.1-0.7-1.4-1.1c-0.7-0.7-0.7-1.6,0-2.3c0.7-0.7,1.6-0.5,2.3,0c0.4,0.4,0.7,0.9,1.1,1.4l4.5,5.9
			L24,15L18.1,10.5z"/>
		<path d="M15.9,18.2c-0.5,0-1.3,0.2-1.8,0.2c-0.9,0-1.6-0.5-1.6-1.6c0-0.9,0.7-1.6,1.6-1.6c0.5,0,1.3,0.2,1.8,0.2l7.4,1.1v0.7
			L15.9,18.2z"/>
		<path d="M19.9,25.1c-0.4,0.5-0.7,1.1-1.1,1.4c-0.7,0.7-1.6,0.7-2.3,0c-0.7-0.7-0.5-1.6,0-2.3c0.4-0.4,0.9-0.7,1.4-1.1l5.9-4.5
			l0.5,0.5L19.9,25.1z"/>
		<path d="M27.6,27.2c0,0.5,0.2,1.3,0.2,1.8c0,0.9-0.5,1.6-1.6,1.6c-0.9,0-1.6-0.7-1.6-1.6c0-0.5,0.2-1.3,0.2-1.8l1.1-7.4h0.7
			L27.6,27.2z"/>
		<path d="M34.6,23.1c0.5,0.4,1.1,0.7,1.4,1.1c0.7,0.7,0.7,1.6,0,2.3c-0.7,0.7-1.6,0.5-2.3,0c-0.4-0.4-0.7-0.9-1.1-1.4l-4.5-5.9
			l0.5-0.5L34.6,23.1z"/>
		<path d="M36.6,15.6c0.5,0,1.3-0.2,1.8-0.2c0.9,0,1.6,0.5,1.6,1.6c0,0.9-0.7,1.6-1.6,1.6c-0.5,0-1.3-0.2-1.8-0.2l-7.4-1.1v-0.7
			L36.6,15.6z"/>
		<path d="M32.7,8.5C33,8,33.4,7.5,33.7,7.1c0.7-0.7,1.6-0.7,2.3,0s0.5,1.6,0,2.3c-0.4,0.4-0.9,0.7-1.4,1.1L28.7,15l-0.5-0.5
			L32.7,8.5z"/>
		<path class="st4" d="M24.9,6.6c0-0.5-0.2-1.3-0.2-1.8c0-0.9,0.5-1.6,1.6-1.6c1.1,0,1.6,0.7,1.6,1.6c0,0.5-0.2,1.3-0.2,1.8
			l-1.1,7.4H26L24.9,6.6z M26.4,15.2c0.9,0,1.6,0.7,1.6,1.6s-0.7,1.6-1.6,1.6c-0.9,0-1.6-0.7-1.6-1.6C24.6,15.9,25.3,15.2,26.4,15.2
			"/>
	</g>
	<polygon points="43.8,13.9 45.4,13.9 45.4,16.5 47.4,13.9 49,13.9 47.2,16.1 49.2,19.9 47.4,19.9 46.3,17.3 45.4,18.4 45.4,19.9 
		43.8,19.9 	"/>
	<polygon points="49.7,13.9 51.4,13.9 53.5,17.2 53.5,13.9 55,13.9 55,19.9 53.5,19.9 51.2,16.5 51.2,19.9 49.7,19.9 	"/>
	<path d="M58,17.7h1.3l-0.5-2L58,17.7z M59.6,19h-2.2l-0.4,0.9h-1.8l2.5-5.9h5.9v1.4h-3.4l0.2,0.9h2.9v1.3h-2.5l0.2,0.9h2.7v1.4h-4
		L59.6,19z"/>
	<polygon points="64.7,13.9 66.3,13.9 66.3,16.5 68.3,13.9 69.9,13.9 68.3,16.1 70.1,19.9 68.3,19.9 67.2,17.3 66.3,18.4 66.3,19.9 
		64.7,19.9 	"/>
	<g>
		<path d="M73.5,13.8c0.7,0,1.4,0.2,1.8,0.5l-0.2,0.4c-0.4-0.4-1.1-0.5-1.6-0.5c-1.4,0-2.5,1.1-2.5,2.5c0,1.6,0.9,2.7,2.5,2.7
			c0.7,0,1.3-0.2,1.6-0.5l0.4,0.4c-0.5,0.5-1.3,0.7-2,0.7c-1.8,0-2.9-1.3-2.9-3.1C70.4,15,71.7,13.8,73.5,13.8"/>
	</g>
	<path d="M77.1,17.9h2.5l-1.3-3.4l0,0L77.1,17.9z M78.2,13.9h0.5l2.2,5.9h-0.5l-0.5-1.6h-2.9l-0.5,1.6h-0.5L78.2,13.9z"/>
	<polygon points="82,13.9 82.5,13.9 85.9,19.1 85.9,13.9 86.4,13.9 86.4,19.9 85.9,19.9 82.3,14.7 82.3,19.9 82,19.9 	"/>
	<g>
		<path d="M90.4,13.8c0.7,0,1.4,0.2,1.8,0.5L92,14.7c-0.4-0.4-1.1-0.5-1.6-0.5c-1.4,0-2.5,1.1-2.5,2.5c0,1.6,0.9,2.7,2.5,2.7
			c0.7,0,1.3-0.2,1.6-0.5l0.4,0.4c-0.5,0.5-1.3,0.7-2,0.7c-1.8,0-2.9-1.3-2.9-3.1C87.5,15,88.6,13.8,90.4,13.8"/>
	</g>
	<polygon points="93.5,13.9 97.2,13.9 97.2,14.3 93.8,14.3 93.8,16.6 96.9,16.6 96.9,17 93.8,17 93.8,19.3 97.4,19.3 97.4,19.9 
		93.5,19.9 	"/>
	<g>
		<path d="M100.5,17c1.1,0,1.4-0.7,1.4-1.3c0-0.7-0.4-1.3-1.4-1.3h-2v2.7h2V17z M98.1,13.9h2.3c1.4,0,2,0.9,2,1.6
			c0,0.7-0.4,1.4-1.3,1.6l1.3,2.5h-0.5l-1.3-2.5h-0.2h-2v2.7H98v-5.9H98.1z"/>
		<path class="st4" d="M114.5,16.8l0.5-0.5c0.2-0.2,0.4-0.2,0.5-0.2c0.4,0,0.7,0.4,0.7,0.7c0,0.4-0.4,0.7-0.7,0.7
			c-0.2,0-0.4,0-0.5-0.2L114.5,16.8z M112.7,17.3L112.7,17.3l-0.5-0.5l0.5-0.5l0.5,0.5 M113.8,17.5L113.8,17.5l0.5,0.5
			c0.4,0.4,0.7,0.5,1.1,0.5c0.9,0,1.6-0.7,1.6-1.6s-0.7-1.6-1.6-1.6c-0.4,0-0.7,0.2-1.1,0.4l-0.5,0.5l-0.5-0.5l0.5-0.5l0,0
			c0.4-0.4,1.1-0.7,1.6-0.7c1.3,0,2.3,1.1,2.3,2.3c0,1.3-1.1,2.3-2.3,2.3c-0.7,0-1.3-0.2-1.6-0.7l0,0l-0.4-0.4 M110.4,17.3
			c-0.2,0.2-0.4,0.2-0.5,0.2c-0.4,0-0.7-0.4-0.7-0.7c0-0.4,0.4-0.7,0.7-0.7c0.2,0,0.4,0,0.5,0.2l0.5,0.5L110.4,17.3z M111.5,18.4
			L111.5,18.4c-0.4,0.4-1.1,0.7-1.6,0.7c-1.3,0-2.3-1.1-2.3-2.3c0-1.3,1.1-2.3,2.3-2.3c0.7,0,1.3,0.2,1.6,0.7l0,0l0.5,0.5l-0.5,0.5
			l-0.5-0.5c-0.4-0.4-0.7-0.4-1.1-0.4c-0.9,0-1.6,0.7-1.6,1.6s0.7,1.6,1.6,1.6c0.4,0,0.9-0.2,1.1-0.5l0.5-0.5l0.5,0.5L111.5,18.4z
			 M115.4,13.6c-0.9,0-1.6,0.4-2.3,0.9l-0.5,0.5l-0.5-0.5l0,0c-0.5-0.5-1.4-0.9-2.3-0.9c-1.8,0-3.2,1.4-3.2,3.2s1.4,3.2,3.2,3.2
			c0.9,0,1.6-0.4,2.3-0.9l0.5-0.5l0,0l0.5,0.5c0.5,0.5,1.4,0.9,2.3,0.9c1.8,0,3.2-1.4,3.2-3.2S117.2,13.6,115.4,13.6"/>
		<path class="st4" d="M132.2,13.9h-3.8c-0.2,0-0.2,0-0.4,0.2l-0.9,1.3h4.7c0.2,0,0.4,0.2,0.4,0.4c0,0.4-0.2,0.5-0.5,0.5h-2.2
			c-0.2,0-0.2,0-0.4,0.2l-0.9,1.3h3.1c1.3,0,2.3-1.1,2.3-2.2C133.8,14.5,132.9,13.9,132.2,13.9"/>
		<path class="st4" d="M125.9,15.4h-5.2l0.9-1.3c0-0.2,0.2-0.2,0.4-0.2h5.2l-0.9,1.3C126,15.2,126,15.4,125.9,15.4"/>
		<path class="st4" d="M122.8,19.3l0.4-3.2h1.6l-0.4,3.2l2-3.1c0-0.2,0.2-0.2,0.4-0.2h1.4l-2.3,3.4c0,0.2-0.2,0.2-0.4,0.2h-2.3
			C123,19.9,122.8,19.7,122.8,19.3"/>
		<path class="st4" d="M131.8,19.9h-4.9l0.9-1.3c0-0.2,0.2-0.2,0.4-0.2h4.9l-0.9,1.3C132.2,19.7,132,19.9,131.8,19.9"/>
	</g>
</g>
<g>
	<path class="st5" d="M143.1,1.7v30.5H2.2V1.7H143.1 M143.3,1.4H1.9v31h141.4L143.3,1.4L143.3,1.4z"/>
</g>
</svg>
