<?xml version="1.0" encoding="utf-8"?>
<!-- Generator: Adobe Illustrator 23.0.4, SVG Export Plug-In . SVG Version: 6.00 Build 0)  -->
<svg version="1.1" id="Artwork" xmlns="http://www.w3.org/2000/svg" xmlns:xlink="http://www.w3.org/1999/xlink" x="0px" y="0px"
	 viewBox="0 0 165.5 106" style="enable-background:new 0 0 165.5 106;" xml:space="preserve">
<style type="text/css">
	.st0{fill:#231F20;}
	.st1{fill:#FF5F00;}
	.st2{fill:#EB001B;}
	.st3{fill:#F79E1B;}
</style>
<g id="Layer_2">
	<g id="Layer_1-2">
		<path class="st0" d="M44.2,100.1v-6.2c0.1-2-1.4-3.8-3.4-4c-0.2,0-0.3,0-0.5,0c-1.4-0.1-2.7,0.6-3.5,1.8c-0.7-1.1-2-1.8-3.3-1.8
			c-1.2-0.1-2.3,0.5-2.9,1.5v-1.2h-2.2v10h2.2v-5.5c-0.2-1.3,0.7-2.5,2-2.6c0.1,0,0.3,0,0.4,0c1.4,0,2.2,0.9,2.2,2.6v5.5h2.2v-5.5
			c-0.2-1.3,0.7-2.5,2-2.6c0.1,0,0.3,0,0.4,0c1.5,0,2.2,0.9,2.2,2.6v5.5L44.2,100.1z M76.5,90.2H73v-3h-2.2v3h-2v2h2v4.6
			c0,2.3,0.9,3.7,3.5,3.7c1,0,1.9-0.3,2.7-0.8l-0.6-1.9c-0.6,0.3-1.2,0.5-1.9,0.6c-1,0-1.4-0.7-1.4-1.7v-4.5h3.5L76.5,90.2z
			 M95,89.9c-1.1,0-2.1,0.5-2.6,1.5v-1.2h-2.1v10h2.2v-5.6c0-1.6,0.7-2.6,2.1-2.6c0.5,0,0.9,0.1,1.4,0.2l0.7-2.1
			C96,90,95.5,89.9,95,89.9L95,89.9z M67.1,90.9c-1.2-0.7-2.6-1.1-4.1-1c-2.5,0-4.2,1.2-4.2,3.2c0,1.6,1.2,2.6,3.4,2.9l1,0.1
			c1.2,0.2,1.7,0.5,1.7,1c0,0.8-0.8,1.2-2.3,1.2c-1.2,0-2.4-0.3-3.3-1l-1,1.7c1.3,0.9,2.8,1.3,4.3,1.3c2.9,0,4.5-1.4,4.5-3.2
			c0-1.9-1.3-2.7-3.5-3l-1-0.1c-0.9-0.1-1.7-0.3-1.7-1c0-0.7,0.7-1.2,1.9-1.2c1.1,0,2.2,0.3,3.1,0.9L67.1,90.9z M125.1,89.9
			c-1.1,0-2.1,0.5-2.6,1.5v-1.2h-2.1v10h2.2v-5.6c0-1.6,0.7-2.6,2.1-2.6c0.5,0,0.9,0.1,1.4,0.2l0.7-2.1
			C126.1,90,125.6,89.9,125.1,89.9L125.1,89.9z M97.2,95.1c-0.1,2.8,2.1,5.1,4.8,5.2c0.2,0,0.3,0,0.5,0c1.3,0.1,2.6-0.4,3.6-1.2
			l-1-1.7c-0.7,0.6-1.7,0.9-2.6,0.9c-1.8-0.1-3.1-1.7-2.9-3.4c0.1-1.6,1.4-2.8,2.9-2.9c0.9,0,1.9,0.3,2.6,0.9l1-1.7
			c-1-0.8-2.3-1.3-3.6-1.2c-2.8-0.2-5.1,2-5.3,4.7C97.2,94.8,97.2,94.9,97.2,95.1L97.2,95.1z M117.5,95.1v-5h-2.2v1.2
			c-0.7-1-1.9-1.5-3.1-1.5c-2.9,0-5.2,2.3-5.2,5.2c0,2.9,2.3,5.2,5.2,5.2c1.2,0,2.4-0.5,3.1-1.5v1.2h2.2V95.1z M109.4,95.1
			c0.1-1.7,1.5-2.9,3.2-2.8s2.9,1.5,2.8,3.2c-0.1,1.6-1.4,2.8-3,2.8c-1.7,0-3-1.3-3-3C109.4,95.3,109.4,95.2,109.4,95.1z M83.3,89.9
			c-2.9,0-5.2,2.4-5.1,5.3c0,2.9,2.4,5.2,5.3,5.1l0,0c1.5,0.1,3-0.4,4.1-1.4l-1-1.6c-0.8,0.7-1.8,1-2.9,1c-1.5,0.1-2.8-1-3-2.4H88
			c0-0.3,0-0.5,0-0.8C88,92,86.1,89.9,83.3,89.9L83.3,89.9z M83.3,91.8c1.4,0,2.5,1.1,2.5,2.4c0,0,0,0,0,0h-5.2
			C80.7,92.9,81.8,91.8,83.3,91.8L83.3,91.8z M137.5,95.1v-9h-2.1v5.2c-0.7-1-1.9-1.5-3.1-1.5c-2.9,0-5.2,2.3-5.2,5.2
			c0,2.9,2.3,5.2,5.2,5.2c1.2,0,2.4-0.5,3.1-1.5v1.2h2.1V95.1z M141.1,98.7c0.1,0,0.3,0,0.4,0.1c0.1,0,0.2,0.1,0.3,0.2
			c0.1,0.1,0.2,0.2,0.2,0.3c0.1,0.2,0.1,0.5,0,0.8c-0.1,0.1-0.1,0.2-0.2,0.3c-0.1,0.1-0.2,0.2-0.3,0.2c-0.1,0.1-0.3,0.1-0.4,0.1
			c-0.4,0-0.8-0.2-0.9-0.6c-0.1-0.2-0.1-0.5,0-0.8c0.1-0.1,0.1-0.2,0.2-0.3c0.1-0.1,0.2-0.2,0.3-0.2C140.9,98.7,141,98.7,141.1,98.7
			L141.1,98.7z M141.1,100.4c0.1,0,0.2,0,0.3-0.1c0.1,0,0.2-0.1,0.2-0.2c0.3-0.3,0.3-0.7,0-1c-0.1-0.1-0.1-0.1-0.2-0.2
			c-0.1,0-0.2-0.1-0.3-0.1c-0.1,0-0.2,0-0.3,0.1c-0.1,0-0.2,0.1-0.2,0.2c-0.3,0.3-0.3,0.7,0,1c0.1,0.1,0.2,0.1,0.2,0.2
			C140.9,100.4,141.1,100.4,141.1,100.4L141.1,100.4z M141.2,99.2c0.1,0,0.2,0,0.3,0.1c0.1,0.1,0.1,0.1,0.1,0.2c0,0.1,0,0.1-0.1,0.2
			c-0.1,0.1-0.1,0.1-0.2,0.1l0.3,0.3h-0.2l-0.3-0.3H141v0.3h-0.2v-0.9L141.2,99.2z M141,99.4v0.2h0.2c0,0,0.1,0,0.1,0
			c0,0,0-0.1,0-0.1c0,0,0-0.1,0-0.1c0,0-0.1,0-0.1,0L141,99.4z M129.5,95.1c0.1-1.7,1.5-2.9,3.2-2.8s2.9,1.5,2.8,3.2
			c-0.1,1.6-1.4,2.8-3,2.8c-1.7,0-3-1.3-3-3C129.5,95.3,129.5,95.2,129.5,95.1z M56.4,95.1v-5h-2.2v1.2c-0.7-1-1.9-1.5-3.1-1.5
			c-2.9,0-5.2,2.3-5.2,5.2c0,2.9,2.3,5.2,5.2,5.2c1.2,0,2.4-0.5,3.1-1.5v1.2h2.2L56.4,95.1z M48.3,95.1c0.1-1.7,1.5-2.9,3.2-2.8
			s2.9,1.5,2.8,3.2c-0.1,1.6-1.4,2.8-3,2.8c-1.7,0-3-1.3-3-2.9C48.3,95.3,48.3,95.2,48.3,95.1L48.3,95.1z"/>
		<g id="_Group__1_">
			<rect x="66.4" y="14.3" class="st1" width="32.8" height="58.9"/>
			<path id="_Path__1_" class="st2" d="M68.4,43.8c0-11.5,5.3-22.4,14.3-29.5c-16.3-12.8-39.8-10-52.6,6.3s-10,39.8,6.3,52.6
				c13.6,10.7,32.7,10.7,46.3,0C73.7,66.1,68.4,55.3,68.4,43.8z"/>
			<path class="st3" d="M143.4,43.8c0,20.7-16.8,37.5-37.5,37.5c-8.4,0-16.6-2.8-23.2-8c16.3-12.8,19.1-36.4,6.3-52.6
				c-1.8-2.3-4-4.5-6.3-6.3c16.3-12.8,39.8-10,52.6,6.3C140.6,27.2,143.4,35.4,143.4,43.8L143.4,43.8z"/>
			<path class="st3" d="M139.8,67v-1.2h0.5v-0.2h-1.2v0.2h0.5V67L139.8,67z M142.2,67v-1.5h-0.4l-0.4,1l-0.4-1h-0.3V67h0.3v-1.1
				l0.4,0.9h0.3l0.4-0.9V67L142.2,67z"/>
		</g>
	</g>
</g>
</svg>
