<?xml version="1.0" encoding="utf-8"?>
<!-- Generator: Adobe Illustrator 23.0.6, SVG Export Plug-In . SVG Version: 6.00 Build 0)  -->
<svg version="1.1" id="Layer_1" xmlns="http://www.w3.org/2000/svg" xmlns:xlink="http://www.w3.org/1999/xlink" x="0px" y="0px"
	 viewBox="0 0 447.9 30.4" style="enable-background:new 0 0 447.9 30.4;" xml:space="preserve">
<style type="text/css">
	.st0{opacity:0.8;}
	.st1{fill:#919191;}
	.st2{opacity:0.8;enable-background:new    ;}
	.st3{opacity:0.8;fill:#919191;enable-background:new    ;}
	.st4{opacity:0.8;fill:#5C5B5B;enable-background:new    ;}
	.st5{opacity:0.4;}
	.st6{fill:#5C5B5B;}
	.st7{fill:#9B9CA0;}
	.st8{opacity:0.56;}
</style>
<title>payment-methods</title>
<g class="st0">
	<path class="st1" d="M77.1,23.2l2.3-14.5h3.7l-2.3,14.5H77.1 M94.4,9c-1.1-0.4-2.2-0.6-3.4-0.6c-3.7,0-6.3,2-6.3,4.8
		c0,2.1,1.8,3.2,3.3,3.9c1.4,0.7,2,1.2,1.9,1.8c0,1-1.2,1.4-2.2,1.4c-1.2,0.1-2.4-0.2-3.5-0.7l-0.5-0.3l-0.5,3.2
		c1.3,0.5,2.7,0.8,4.2,0.8c3.9,0,6.5-1.9,6.5-4.9c0-1.6-1-2.9-3.1-3.9c-1.3-0.7-2.1-1.1-2.1-1.8s0.7-1.2,2.1-1.2
		c0.9,0,1.9,0.2,2.7,0.6l0.3,0.2L94.4,9 M104,8.7h-2.9c-0.9-0.1-1.7,0.4-2,1.2l-5.6,13.3h3.9c0,0,0.6-1.8,0.8-2.2h4.8
		c0.1,0.5,0.5,2.2,0.5,2.2h3.5L104,8.7 M99.4,18l1.5-4c0,0,0.3-0.8,0.5-1.4l0.2,1.3c0,0,0.7,3.5,0.9,4.2h-3.1V18z M74,8.7l-3.7,9.9
		l-0.3-2c-0.9-2.6-2.8-4.7-5.2-6l3.3,12.7h4l5.8-14.6H74"/>
	<path class="st1" d="M66.9,8.7h-6L60.8,9c4.7,1.2,7.8,4.1,9.2,7.6l-1.4-6.7C68.4,9.1,67.7,8.6,66.9,8.7"/>
</g>
<g class="st2">
	<g>
		<g>
			<path class="st1" d="M37.2,14.7l5,5.9c1-1.5,1.6-3.3,1.6-5.2c0-2.1-0.7-4-1.8-5.5L37.2,14.7z"/>
			<path class="st1" d="M23,9.3c3.7,0,6.5,0.9,6.8,4.1l3.9-4.1h7.8c-1.7-2-4.2-3.2-7-3.2h-15c-2.8,0-5.3,1.3-7,3.2
				C12.5,9.3,23,9.3,23,9.3z"/>
			<path class="st1" d="M16.9,13.3L15.6,17h5.3c1.6,0,2.1-0.7,2.4-1.9c0.4-1.2-0.5-1.7-1.6-1.7h-4.8V13.3z"/>
			<path class="st1" d="M33.8,21.1l-4.1-5.2c-0.8,3.6-3.3,5.2-8,5.2h-9.4c1.7,2.1,4.3,3.5,7.2,3.5h15c2.9,0,5.5-1.4,7.2-3.5H33.8z"
				/>
		</g>
	</g>
</g>
<g>
	<g id="Layer_2">
		<g id="Layer_1-2">
			<path class="st3" d="M133.3,27.3v-1.6c0-0.5-0.4-1-0.9-1h-0.1c-0.4,0-0.7,0.2-0.9,0.5c-0.2-0.3-0.5-0.5-0.9-0.5
				c-0.3,0-0.6,0.1-0.8,0.4v-0.3h-0.6v2.6h0.6V26c0-0.3,0.2-0.6,0.5-0.7h0.1c0.4,0,0.6,0.2,0.6,0.7v1.4h0.6V26
				c0-0.3,0.2-0.6,0.5-0.7h0.1c0.4,0,0.6,0.2,0.6,0.7v1.4L133.3,27.3z M141.7,24.7h-0.9v-0.8h-0.6v0.8h-0.5v0.5h0.5v1.2
				c0,0.6,0.2,1,0.9,1c0.2,0,0.5-0.1,0.7-0.2l-0.2-0.5c-0.2,0.1-0.3,0.1-0.5,0.1c-0.3,0-0.4-0.2-0.4-0.4v-1.2h0.9L141.7,24.7z
				 M146.5,24.6c-0.3,0-0.5,0.1-0.7,0.4v-0.3h-0.6v2.6h0.6v-1.4c0-0.4,0.2-0.7,0.5-0.7c0.1,0,0.2,0,0.4,0.1l0.2-0.5
				C146.8,24.6,146.6,24.6,146.5,24.6L146.5,24.6z M139.3,24.9c-0.3-0.2-0.7-0.3-1.1-0.3c-0.7,0-1.1,0.3-1.1,0.8
				c0,0.4,0.3,0.7,0.9,0.8h0.3c0.3,0,0.5,0.1,0.5,0.3c0,0.2-0.2,0.3-0.6,0.3c-0.3,0-0.6-0.1-0.9-0.3l-0.3,0.4
				c0.3,0.2,0.7,0.3,1.1,0.3c0.7,0,1.2-0.4,1.2-0.8s-0.3-0.7-0.9-0.8h-0.3c-0.2,0-0.4-0.1-0.4-0.3c0-0.2,0.2-0.3,0.5-0.3
				s0.6,0.1,0.8,0.2L139.3,24.9z M154.3,24.6c-0.3,0-0.5,0.1-0.7,0.4v-0.3H153v2.6h0.6v-1.4c0-0.4,0.2-0.7,0.5-0.7
				c0.1,0,0.2,0,0.4,0.1l0.2-0.5C154.6,24.6,154.5,24.6,154.3,24.6L154.3,24.6z M147.1,26c0,0.7,0.5,1.3,1.3,1.4h0.1
				c0.3,0,0.7-0.1,0.9-0.3l-0.3-0.5c-0.2,0.1-0.4,0.2-0.7,0.2c-0.5,0-0.8-0.4-0.8-0.9c0-0.4,0.4-0.7,0.8-0.8c0.2,0,0.5,0.1,0.7,0.2
				l0.3-0.5c-0.3-0.2-0.6-0.3-0.9-0.3c-0.7,0-1.3,0.5-1.4,1.2C147.1,25.9,147.1,25.9,147.1,26L147.1,26z M152.4,26v-1.3h-0.6V25
				c-0.2-0.2-0.5-0.4-0.8-0.4c-0.7,0-1.4,0.6-1.4,1.4s0.6,1.4,1.4,1.4c0.3,0,0.6-0.1,0.8-0.4v0.3h0.6V26z M150.3,26
				c0-0.4,0.4-0.8,0.8-0.7c0.4,0,0.8,0.4,0.7,0.8c0,0.4-0.4,0.7-0.8,0.7C150.6,26.8,150.3,26.4,150.3,26L150.3,26z M143.5,24.6
				c-0.7,0-1.3,0.6-1.3,1.4c0,0.7,0.6,1.3,1.4,1.3l0,0c0.4,0,0.8-0.1,1.1-0.4l-0.3-0.4c-0.2,0.2-0.5,0.3-0.8,0.3
				c-0.4,0-0.7-0.2-0.8-0.6h1.9c0-0.1,0-0.1,0-0.2C144.7,25.2,144.2,24.6,143.5,24.6L143.5,24.6z M143.5,25.1c0.4,0,0.6,0.3,0.7,0.6
				l0,0h-1.4C142.8,25.4,143.1,25.1,143.5,25.1L143.5,25.1z M157.6,26v-2.3h-0.5V25c-0.2-0.2-0.5-0.4-0.8-0.4
				c-0.7,0-1.4,0.6-1.4,1.4s0.6,1.4,1.4,1.4c0.3,0,0.6-0.1,0.8-0.4v0.3h0.5V26z M158.5,26.9h0.1c0,0,0.1,0,0.1,0.1
				c0,0,0,0.1,0.1,0.1c0,0.1,0,0.1,0,0.2c0,0,0,0.1-0.1,0.1c0,0-0.1,0-0.1,0.1h-0.1c-0.1,0-0.2-0.1-0.2-0.2s0-0.1,0-0.2
				c0,0,0-0.1,0.1-0.1C158.4,27,158.5,27,158.5,26.9C158.4,26.9,158.5,26.9,158.5,26.9L158.5,26.9z M158.5,27.3
				C158.5,27.3,158.6,27.3,158.5,27.3c0.1,0,0.1,0,0.1-0.1c0.1-0.1,0.1-0.2,0-0.3c0,0,0,0-0.1,0h-0.1h-0.1c0,0,0,0-0.1,0
				c-0.1,0.1-0.1,0.2,0,0.3C158.4,27.3,158.4,27.3,158.5,27.3L158.5,27.3L158.5,27.3z M158.5,27C158.5,27,158.6,27,158.5,27
				C158.6,27,158.6,27.1,158.5,27c0.1,0.1,0.1,0.1,0.1,0.1s0,0-0.1,0l0.1,0.1h-0.1l-0.1-0.1l0,0v0.1h-0.1V27H158.5z M158.5,27.1
				L158.5,27.1L158.5,27.1L158.5,27.1C158.6,27.1,158.6,27.1,158.5,27.1C158.6,27.1,158.6,27.1,158.5,27.1L158.5,27.1L158.5,27.1z
				 M155.5,26c0-0.4,0.4-0.8,0.8-0.7c0.4,0,0.8,0.4,0.7,0.8c0,0.4-0.4,0.7-0.8,0.7S155.5,26.5,155.5,26L155.5,26z M136.5,26v-1.3
				h-0.6V25c-0.2-0.2-0.5-0.4-0.8-0.4c-0.7,0-1.4,0.6-1.4,1.4s0.6,1.4,1.4,1.4c0.3,0,0.6-0.1,0.8-0.4v0.3h0.6V26z M134.4,26
				c0-0.4,0.4-0.8,0.8-0.7c0.4,0,0.8,0.4,0.7,0.8c0,0.4-0.4,0.7-0.8,0.7C134.8,26.8,134.4,26.5,134.4,26L134.4,26L134.4,26z"/>
			<g id="_Group__1_">
				<path class="st3" d="M158.2,18.7v-0.3h0.1v-0.1H158v0.1h0.1L158.2,18.7L158.2,18.7z M158.8,18.7v-0.4h-0.1l-0.1,0.3l-0.1-0.3
					h-0.1v0.4h0.1v-0.3l0.1,0.2h0.1l0.1-0.2V18.7L158.8,18.7z"/>
			</g>
		</g>
	</g>
	<circle class="st4" cx="149.4" cy="12.6" r="9.6"/>
	<circle class="st3" cx="137.2" cy="12.6" r="9.6"/>
</g>
<g>
	<path class="st3" d="M186.5,27v-1.6c0-0.5-0.4-1-0.9-1h-0.1c-0.4,0-0.7,0.2-0.9,0.5c-0.2-0.3-0.5-0.5-0.9-0.5
		c-0.3,0-0.6,0.1-0.8,0.4v-0.3h-0.6V27h0.6v-1.4c0-0.3,0.2-0.6,0.5-0.7h0.1c0.4,0,0.6,0.2,0.6,0.7V27h0.6v-1.4
		c0-0.3,0.2-0.6,0.5-0.7h0.1c0.4,0,0.6,0.2,0.6,0.7V27H186.5z M189.7,25.7v-1.3h-0.6v0.3c-0.2-0.2-0.5-0.4-0.8-0.4
		c-0.7,0-1.3,0.6-1.3,1.3s0.6,1.3,1.3,1.3c0.3,0,0.6-0.1,0.8-0.4V27h0.6V25.7z M187.6,25.7c0-0.4,0.4-0.8,0.8-0.7
		c0.4,0,0.8,0.4,0.7,0.8c0,0.4-0.4,0.7-0.8,0.7C188,26.5,187.6,26.2,187.6,25.7L187.6,25.7L187.6,25.7z M201.7,24.3
		c0.2,0,0.4,0,0.5,0.1c0.2,0.1,0.3,0.2,0.4,0.3c0.1,0.1,0.2,0.3,0.3,0.4c0.1,0.3,0.1,0.7,0,1.1c-0.1,0.2-0.2,0.3-0.3,0.4
		s-0.3,0.2-0.4,0.3c-0.4,0.1-0.7,0.1-1.1,0c-0.2-0.1-0.3-0.2-0.4-0.3c-0.1-0.1-0.2-0.3-0.3-0.4c-0.1-0.3-0.1-0.7,0-1.1
		c0.1-0.2,0.2-0.3,0.3-0.4s0.3-0.2,0.4-0.3C201.3,24.4,201.5,24.3,201.7,24.3L201.7,24.3z M201.7,24.9c-0.1,0-0.2,0-0.3,0.1
		c-0.1,0-0.2,0.1-0.3,0.2s-0.1,0.2-0.2,0.3c-0.1,0.2-0.1,0.5,0,0.7c0,0.1,0.1,0.2,0.2,0.3c0.1,0.1,0.2,0.1,0.3,0.2
		c0.2,0.1,0.4,0.1,0.6,0c0.1,0,0.2-0.1,0.3-0.2s0.1-0.2,0.2-0.3c0.1-0.2,0.1-0.5,0-0.7c0-0.1-0.1-0.2-0.2-0.3
		c-0.1-0.1-0.2-0.1-0.3-0.2S201.8,24.9,201.7,24.9L201.7,24.9z M192.7,25.7c0-0.8-0.5-1.3-1.2-1.3s-1.3,0.6-1.3,1.4s0.6,1.3,1.4,1.3
		c0.4,0,0.8-0.1,1.1-0.4l-0.3-0.4c-0.2,0.2-0.5,0.3-0.7,0.3c-0.4,0-0.7-0.2-0.8-0.6h1.9C192.7,25.8,192.7,25.8,192.7,25.7z
		 M190.8,25.5c0-0.4,0.3-0.6,0.7-0.6s0.6,0.3,0.7,0.6l0,0H190.8z M195.1,25.1c-0.2-0.1-0.5-0.2-0.8-0.2s-0.5,0.1-0.5,0.3
		s0.2,0.2,0.4,0.3h0.3c0.6,0.1,0.9,0.3,0.9,0.8s-0.4,0.8-1.2,0.8c-0.4,0-0.8-0.1-1.1-0.3l0.3-0.4c0.2,0.2,0.5,0.3,0.9,0.3
		s0.6-0.1,0.6-0.3c0-0.1-0.1-0.2-0.5-0.3h-0.3c-0.6-0.1-0.9-0.3-0.9-0.8s0.4-0.8,1.1-0.8c0.4,0,0.7,0.1,1,0.3L195.1,25.1z
		 M197.8,24.9h-0.9v1.2c0,0.3,0.1,0.4,0.4,0.4c0.2,0,0.3-0.1,0.5-0.1l0.2,0.5c-0.2,0.1-0.5,0.2-0.7,0.2c-0.7,0-0.9-0.4-0.9-1v-1.2
		h-0.5v-0.5h0.5v-0.8h0.6v0.8h0.9v0.5H197.8z M199.7,24.3c0.1,0,0.3,0,0.4,0.1l-0.2,0.5c-0.1,0-0.2-0.1-0.3-0.1
		c-0.4,0-0.5,0.2-0.5,0.7V27h-0.6v-2.6h0.6v0.3C199.2,24.5,199.4,24.3,199.7,24.3L199.7,24.3z M203.6,26.6h0.1c0,0,0.1,0,0.1,0.1
		c0,0,0,0.1,0.1,0.1c0,0.1,0,0.1,0,0.2c0,0,0,0.1-0.1,0.1c0,0-0.1,0-0.1,0.1h-0.1c-0.1,0-0.2-0.1-0.2-0.2s0-0.1,0-0.2
		c0,0,0-0.1,0.1-0.1C203.5,26.7,203.6,26.7,203.6,26.6C203.5,26.6,203.5,26.6,203.6,26.6L203.6,26.6z M203.6,27L203.6,27
		c0.1,0,0.1,0,0.1-0.1c0.1-0.1,0.1-0.2,0-0.3c0,0,0,0-0.1,0h-0.1h-0.1c0,0,0,0-0.1,0c-0.1,0.1-0.1,0.2,0,0.3
		C203.5,27,203.5,27,203.6,27L203.6,27z M203.6,26.7L203.6,26.7C203.7,26.8,203.7,26.8,203.6,26.7c0.1,0.1,0.1,0.1,0.1,0.1
		s0,0-0.1,0l0.1,0.1h-0.1l-0.1-0.1l0,0V27h-0.1v-0.2L203.6,26.7z M203.5,26.8L203.5,26.8L203.5,26.8
		C203.6,26.8,203.6,26.8,203.5,26.8C203.6,26.8,203.6,26.8,203.5,26.8C203.6,26.8,203.6,26.8,203.5,26.8
		C203.6,26.8,203.6,26.8,203.5,26.8L203.5,26.8z"/>
	<g id="_Group_">
		<path class="st3" d="M207.5,18.4v-0.3h0.1V18h-0.3v0.1h0.1L207.5,18.4L207.5,18.4z M208.1,18.4V18H208l-0.1,0.3l-0.1-0.3h-0.1v0.4
			h0.1v-0.3l0.1,0.2h0.1l0.1-0.2V18.4L208.1,18.4z"/>
	</g>
	<circle class="st4" cx="198.8" cy="12.7" r="9.6"/>
	<circle class="st3" cx="186.7" cy="12.7" r="9.6"/>
</g>
<g class="st0">
	<path class="st1" d="M403.7,9.1c0.5-0.6,0.8-1.4,0.7-2.1c-0.7,0-1.5,0.5-2,1c-0.4,0.5-0.8,1.3-0.7,2
		C402.4,10.2,403.2,9.7,403.7,9.1 M404.4,10.2c-1.1-0.1-2,0.6-2.6,0.6s-1.3-0.6-2.2-0.6c-1.1,0-2.2,0.6-2.8,1.7
		c-1.2,2-0.3,5.1,0.8,6.7c0.6,0.8,1.2,1.7,2.1,1.7c0.8,0,1.2-0.6,2.2-0.6s1.3,0.6,2.2,0.5c0.9,0,1.5-0.8,2-1.7
		c0.6-0.9,0.9-1.9,0.9-1.9s-1.8-0.7-1.8-2.7c0-1.7,1.4-2.5,1.4-2.5C406,10.4,404.8,10.3,404.4,10.2"/>
	<g>
		<path class="st1" d="M413.9,7.9c2.4,0,4.1,1.7,4.1,4c0,2.4-1.7,4.1-4.1,4.1h-2.6v4.2h-1.9V7.9H413.9z M411.2,14.4h2.2
			c1.7,0,2.6-0.9,2.6-2.4c0-1.6-0.9-2.4-2.6-2.4h-2.2V14.4L411.2,14.4z M418.4,17.7c0-1.6,1.2-2.5,3.3-2.7l2.5-0.1v-0.7
			c0-1-0.7-1.6-1.8-1.6c-1.1,0-1.7,0.5-1.9,1.3h-1.8c0.1-1.6,1.5-2.8,3.7-2.8s3.6,1.1,3.6,3v6.2h-1.8v-1.5l0,0
			c-0.5,1-1.7,1.6-2.8,1.6C419.7,20.4,418.4,19.3,418.4,17.7z M424.3,16.9v-0.7l-2.2,0.1c-1.1,0.1-1.7,0.6-1.7,1.3
			c0,0.8,0.6,1.3,1.6,1.3C423.3,19,424.3,18.1,424.3,16.9L424.3,16.9z M427.7,23.6v-1.5c0.1,0,0.5,0,0.6,0c0.8,0,1.3-0.4,1.6-1.3
			l0.2-0.6l-3.2-9h2l2.3,7.3l0,0l2.3-7.3h1.9l-3.3,9.5c-0.8,2.2-1.7,2.9-3.5,2.9C428.4,23.6,427.9,23.6,427.7,23.6L427.7,23.6z"/>
	</g>
</g>
<g>
	<path class="st3" d="M327.2,25.9c-0.7,0-1.4-0.4-1.6-1.1L319.4,10c-0.4-0.9,0.1-1.9,1-2.3l6.4-2.7c0.4-0.2,0.9-0.2,1.4,0
		c0.4,0.2,0.8,0.5,1,1l6.1,14.8c0.2,0.4,0.2,0.9,0,1.4c-0.2,0.4-0.5,0.8-1,1l-6.4,2.7C327.6,25.9,327.4,25.9,327.2,25.9z M327.4,5.9
		c-0.1,0-0.2,0-0.3,0.1l-6.4,2.7c-0.4,0.2-0.6,0.7-0.4,1.1l6.1,14.8c0.2,0.4,0.7,0.6,1.1,0.4l6.4-2.7l0,0c0.2-0.1,0.4-0.2,0.4-0.4
		c0.1-0.2,0.1-0.4,0-0.6l-6.1-14.8c-0.1-0.2-0.2-0.4-0.4-0.4C327.7,5.9,327.5,5.9,327.4,5.9z"/>
	<path class="st1" d="M332.8,15.8c-1.8,0.8-3.4,1.8-4.4,3.1l-2.6-6.3c1.1-1.3,2.5-2.3,4.4-3.1s3.7-1.1,5.3-0.9l2.6,6.3
		C336.4,14.7,334.6,15.1,332.8,15.8z"/>
	<g class="st5">
		<path class="st6" d="M332.8,15.8c-1.8,0.8-3.4,1.8-4.4,3.1l-2.6-6.3c1.1-1.3,2.5-2.3,4.4-3.1c1.8-0.8,3.7-1.1,5.3-0.9l2.6,6.3
			C336.4,14.7,334.6,15.1,332.8,15.8z"/>
	</g>
	<path class="st3" d="M333.7,17.7c-2,0-3.8,0.4-5.2,1.2v-6.3c1.5-0.8,3.2-1.2,5.2-1.2s3.8,0.4,5.2,1.2v6.3
		C337.4,18.1,335.6,17.7,333.7,17.7z"/>
</g>
<g class="st0">
	<path class="st1" d="M344.9,17.6l1.6-5.1c0-0.1,0.1-0.1,0.2-0.1h0.8c0.1,0,0.1,0.1,0.2,0.1l1.3,3.2c0,0.1,0.1,0.1,0.1,0l1.2-3.2
		c0-0.1,0.1-0.1,0.2-0.1h0.8c0.1,0,0.1,0.1,0.2,0.1l1.6,5.1c0,0.1,0,0.2-0.1,0.2h-1c-0.1,0-0.1,0-0.1-0.1l-1-3.3
		c0-0.1-0.1-0.1-0.1,0l-1.2,3.3c0,0.1-0.1,0.1-0.2,0.1h-0.6c-0.1,0-0.1,0-0.2-0.1l-1.2-3.3c0-0.1-0.1-0.1-0.1,0l-1,3.3
		c0,0.1-0.1,0.1-0.2,0.1h-0.9C344.9,17.8,344.9,17.7,344.9,17.6z"/>
	<path class="st1" d="M353.2,15.8c0-1.2,0.9-2.1,2.1-2.1s2.1,0.9,2.1,2.1s-0.9,2.1-2.1,2.1C354.1,17.9,353.2,17,353.2,15.8z
		 M356.4,15.8c0-0.6-0.5-1.1-1-1.1c-0.6,0-1,0.5-1,1.1c0,0.6,0.5,1.1,1,1.1S356.4,16.4,356.4,15.8z"/>
	<path class="st1" d="M359.4,17.5c-0.1-0.1-0.2,0-0.2,0.1v0.1c0,0.1-0.1,0.2-0.1,0.2h-0.7c-0.1,0-0.2-0.1-0.2-0.2v-5.1
		c0-0.1,0.1-0.2,0.2-0.2h0.8c0.1,0,0.1,0.1,0.1,0.2V14c0,0.1,0.1,0.1,0.2,0.1c0.2-0.2,0.6-0.3,1-0.3c1.1,0,1.9,0.9,1.9,2.1
		s-0.8,2.1-1.9,2.1C360,17.9,359.7,17.7,359.4,17.5z M361.3,15.8c0-0.6-0.5-1.1-1.1-1.1s-1,0.5-1,1.1c0,0.6,0.5,1.1,1,1.1
		C360.9,16.9,361.3,16.4,361.3,15.8z"/>
	<path class="st1" d="M363.1,12.8c0-0.3,0.3-0.6,0.6-0.6c0.3,0,0.6,0.3,0.6,0.6s-0.3,0.6-0.6,0.6C363.3,13.4,363.1,13.1,363.1,12.8z
		 M363.1,17.7V14c0-0.1,0.1-0.2,0.1-0.2h0.8c0.1,0,0.2,0.1,0.2,0.2v3.7c0,0.1-0.1,0.2-0.2,0.2h-0.8
		C363.2,17.8,363.1,17.7,363.1,17.7z"/>
	<path class="st1" d="M365.1,16.5v-3.9c0-0.1,0.1-0.2,0.1-0.2h0.8c0.1,0,0.2,0.1,0.2,0.2v3.9c0,0.3,0.1,0.4,0.4,0.4
		c0.1,0,0.2,0.1,0.2,0.2v0.6c0,0.1-0.1,0.1-0.2,0.1C365.5,17.9,365.1,17.5,365.1,16.5z"/>
	<path class="st1" d="M367,15.8c0-1.2,0.9-2.1,2.1-2.1s2,0.9,2,2.1c0,0.1,0,0.3-0.2,0.3h-2.7c-0.1,0-0.1,0-0.1,0.1
		c0.1,0.5,0.5,0.8,1,0.8c0.3,0,0.6-0.2,0.8-0.3c0.1-0.1,0.2-0.1,0.3-0.1h0.7c0.1,0,0.2,0.1,0.1,0.2c-0.3,0.7-1,1.2-1.9,1.2
		C367.8,17.9,367,17,367,15.8z M369.9,15.5C369.9,15.5,370,15.4,369.9,15.5c0-0.5-0.4-0.8-0.8-0.8s-0.8,0.3-0.9,0.7
		c0,0.1,0,0.1,0.1,0.1H369.9z"/>
	<path class="st1" d="M371.8,17.7v-5.1c0-0.1,0.1-0.2,0.1-0.2h2.5c1.1,0,1.9,0.7,1.9,1.8s-0.9,1.8-2,1.8H373c-0.1,0-0.1,0.1-0.1,0.2
		v1.5c0,0.1-0.1,0.2-0.2,0.2h-0.8C371.8,17.8,371.8,17.7,371.8,17.7z M374.3,15.1c0.5,0,0.8-0.5,0.8-0.9s-0.3-0.8-0.8-0.8H373
		c-0.1,0-0.1,0-0.1,0.1V15c0,0.1,0,0.1,0.1,0.1H374.3z"/>
	<path class="st1" d="M376.7,15.8c0-1.2,0.9-2.1,2-2.1c0.5,0,0.8,0.2,1.1,0.4c0.1,0.1,0.2,0.1,0.2,0V14c0-0.1,0.1-0.1,0.1-0.1h0.7
		c0.1,0,0.2,0.1,0.2,0.2v2.6c0,0.2,0.1,0.3,0.2,0.3s0.1,0.1,0.1,0.1v0.7c0,0.1-0.1,0.1-0.1,0.1c-0.5,0-0.8-0.2-1-0.5
		c0-0.1-0.1-0.1-0.2,0c-0.3,0.3-0.7,0.5-1.3,0.5C377.6,17.9,376.7,17,376.7,15.8z M379.9,15.8c0-0.6-0.5-1.1-1-1.1
		c-0.6,0-1,0.5-1,1.1c0,0.6,0.5,1.1,1,1.1S379.9,16.4,379.9,15.8z"/>
	<path class="st1" d="M381.6,19.2v-0.6c0-0.1,0.1-0.1,0.2-0.1c0.5,0,1-0.3,1.1-0.8c0-0.1,0-0.2,0-0.3l-1.5-3.3c0-0.1,0-0.2,0.1-0.2
		h0.8c0.1,0,0.1,0.1,0.2,0.1l0.9,2.1c0.1,0.2,0.2,0.2,0.2,0l0.9-2.1c0-0.1,0.1-0.1,0.2-0.1h0.8c0.1,0,0.2,0.1,0.1,0.2l-1.5,3.6
		c-0.5,1.3-1.1,1.8-2.3,1.8C381.7,19.4,381.6,19.3,381.6,19.2z"/>
</g>
<path class="st7" d="M228.2,19.5c-0.6,0-1.2-0.1-1.7-0.3l0.2-1.3c0.5,0.2,1.1,0.3,1.7,0.3c0.8,0,1.4-0.2,1.5-0.9
	c0.1-1.4-3.4-0.9-3.3-3.3c0.1-1.3,1.3-2.1,3.3-2c0.5,0,1,0.1,1.5,0.2l-0.1,1.2c-0.5-0.1-1-0.2-1.5-0.3c-0.9,0-1.4,0.3-1.4,0.8
	c-0.1,1.3,3.4,1,3.3,3.2C231.5,18.6,230.3,19.6,228.2,19.5z"/>
<path class="st7" d="M237.6,16.9c-0.1,0-0.3,0-0.5,0v2.5h-1.6v-7.2c0.6,0,1.4,0,2.2,0c2,0,3.1,0.9,3.1,2.3
	C240.9,15.8,239.6,16.9,237.6,16.9z M237.7,13.3c-0.2,0-0.4,0-0.6,0v2.4c0.2,0,0.3,0,0.5,0c1,0,1.7-0.5,1.7-1.2
	C239.2,13.8,238.7,13.3,237.7,13.3z"/>
<path class="st7" d="M257.7,19.3l-2.3-2.9h-0.1v2.9h-1.6l0-7.2c0.6,0,1.4,0,2.4,0c1.8,0,3,0.6,3,2c0,1.1-0.9,1.8-2.1,2
	c0.2,0.3,2.7,3.2,2.7,3.2H257.7z M256,13.3c-0.2,0-0.5,0-0.6,0v2.1c0.1,0,0.3,0,0.6,0c1,0,1.5-0.4,1.5-1.1
	C257.5,13.6,257,13.3,256,13.3z"/>
<polygon class="st7" points="245.7,12.1 247.6,12.1 250.5,19.3 248.7,19.3 246.6,13.9 244.5,19.3 242.8,19.3 "/>
<polygon class="st8" points="249.9,17.9 243.4,17.9 243.8,16.9 249.5,16.9 "/>
<path class="st7" d="M267.5,19.3l-1.8-2.5l-1.8,2.5H262l2.8-3.5l-2.7-3.6h2l1.8,2.5l1.8-2.5h1.8l-2.6,3.5l2.8,3.6H267.5z"/>
<path class="st7" d="M289.5,19.3v-7.1h4.4v1.2h-2.8v1.7h2.7v1.1h-2.7v1.9h2.8v1.2H289.5z"/>
<path class="st7" d="M274.5,17c-0.2,0-0.5,0-0.6,0v2.3h-1.5v-7.1c0.6,0,1.5,0,2.3,0c1.8,0,2.8,0.9,2.8,2.3
	C277.6,16,276.3,17,274.5,17z M274.6,13.3c-0.3,0-0.5,0-0.7,0v2.4c0.2,0,0.4,0.1,0.6,0.1c0.9,0,1.5-0.4,1.5-1.3
	C276,13.8,275.5,13.3,274.6,13.3z"/>
<path class="st7" d="M299.3,19.4c-0.5,0-1.2-0.1-1.7-0.2l0.2-1.3c0.4,0.2,1,0.3,1.7,0.3c0.7,0,1.4-0.3,1.4-1c0-1.2-3.4-0.6-3.4-2.9
	c0-1.3,1.1-2.2,3.1-2.2c0.4,0,1.1,0.1,1.5,0.1l-0.1,1.2c-0.4-0.1-1-0.2-1.5-0.2c-1,0-1.4,0.3-1.4,0.9c0,1.2,3.4,0.7,3.4,2.9
	C302.6,18.5,301.3,19.4,299.3,19.4z"/>
<path class="st7" d="M284.4,19.3l-2-2.9h-0.1v2.9h-1.5v-7.1c0.5,0,1.5,0,2.3,0c1.7,0,2.7,0.7,2.7,2c0,1.2-0.8,1.8-2,2
	c0.2,0.2,0.4,0.5,0.6,0.8l1.8,2.4H284.4z M283,13.3c-0.2,0-0.4,0-0.6,0v2c0.2,0,0.5,0,0.7,0c0.8,0,1.3-0.4,1.3-1.1
	C284.3,13.6,283.8,13.3,283,13.3z"/>
</svg>
