<svg xmlns="http://www.w3.org/2000/svg" viewBox="0 0 195.89 18.87"><title>sparxpres</title><path d="M4.32,18.85A20.78,20.78,0,0,1,0,18.19l.42-3.28a16.72,16.72,0,0,0,4.41.89c2.08.11,3.73-.55,3.81-2.23.19-3.5-8.81-2.37-8.49-8.4C.32,1.92,3.43-.18,8.53.08a27.51,27.51,0,0,1,3.83.53L12,3.7A15.69,15.69,0,0,0,8.19,3c-2.37-.13-3.61.73-3.68,2-.17,3.29,8.84,2.53,8.54,8.26C12.87,16.77,9.55,19.12,4.32,18.85Z" style="fill:#b9b8b8"/><path d="M28.54,12.18c-.38,0-.89,0-1.39,0v6.36h-4.1V0h5.71C34,0,36.87,2.23,36.87,5.81S33.71,12.18,28.54,12.18ZM28.6,3c-.51,0-1,0-1.45,0V9.16a8.34,8.34,0,0,0,1.2.08C30.87,9.22,32.61,8,32.61,6S31.38,3,28.6,3Z" style="fill:#b9b8b8"/><path d="M80.26,18.49,74.33,10.9h-.16v7.59h-4.1L70,0h6.12c4.7,0,7.76,1.44,7.76,5.19,0,2.72-2.21,4.68-5.43,5.11.6.68,6.85,8.19,6.85,8.19ZM75.78,2.9A14.49,14.49,0,0,0,74.17,3V8.29c.29,0,.86.05,1.49.05,2.46,0,4-1.08,4-2.8S78.37,2.9,75.78,2.9Z" style="fill:#b9b8b8"/><polygon points="49.4 0 54.2 0 61.76 18.5 57.08 18.5 51.74 4.64 46.3 18.5 41.85 18.5 49.4 0" style="fill:#b9b8b8"/><polygon points="60.24 14.81 43.36 14.81 44.43 12.16 59.16 12.16 60.24 14.81" style="fill:#be2b31"/><path d="M105.55,18.34l-4.74-6.48-4.74,6.48H91.23l7.25-9-7-9.17h5l4.62,6.33L105.8.14h4.59l-6.8,9,7.25,9.21Z" style="fill:#b9b8b8"/><path d="M162.09,18.33V.14h11.33v3h-7.33V7.55h7v2.87h-7v4.9h7.33v3Z" style="fill:#b9b8b8"/><path d="M123.47,12.42c-.46,0-1.17,0-1.63-.07v6H118V.14c1.56,0,3.86-.11,6-.11,4.68,0,7.33,2.2,7.33,5.88C131.36,9.9,128.14,12.42,123.47,12.42Zm.24-9.35c-.7,0-1.38,0-1.87,0V9.27a8.39,8.39,0,0,0,1.63.14c2.36,0,3.82-1.12,3.82-3.26C127.29,4.37,126.08,3.07,123.71,3.07Z" style="fill:#b9b8b8"/><path d="M187.37,18.71a23.24,23.24,0,0,1-4.31-.55l.41-3.25a13.33,13.33,0,0,0,4.36.69c1.85,0,3.63-.76,3.63-2.52,0-3.18-8.67-1.52-8.67-7.36,0-3.38,2.88-5.62,8.06-5.62a30.5,30.5,0,0,1,4,.33l-.36,3.15a15.07,15.07,0,0,0-3.75-.51c-2.5,0-3.6.89-3.6,2.24,0,3.07,8.79,1.73,8.79,7.36C195.89,16.33,192.4,18.71,187.37,18.71Z" style="fill:#b9b8b8"/><path d="M149,18.33l-5.27-7.49h-.18v7.49h-3.82V.14c1.34-.07,3.75-.11,6-.11,4.39,0,6.93,1.68,6.93,5,0,3-2.08,4.76-5,5.21.43.49.92,1.19,1.49,2l4.56,6.09Zm-3.82-15.4a11.65,11.65,0,0,0-1.63.07V8.25c.53,0,1.17.07,1.77.07,2,0,3.33-1.15,3.33-2.87S147.38,2.93,145.22,2.93Z" style="fill:#b9b8b8"/></svg>