<?xml version="1.0" encoding="utf-8"?>
<!-- Generator: Adobe Illustrator 23.0.4, SVG Export Plug-In . SVG Version: 6.00 Build 0)  -->
<svg version="1.1" id="Artwork" xmlns="http://www.w3.org/2000/svg" xmlns:xlink="http://www.w3.org/1999/xlink" x="0px" y="0px"
	 viewBox="0 0 165.5 106" style="enable-background:new 0 0 165.5 106;" xml:space="preserve">
<style type="text/css">
	.st0{fill:#005EA7;}
</style>
<g>
	<g>
		<polygon class="st0" points="72.7,74.6 61.4,74.6 68.4,31.4 79.7,31.4 		"/>
		<path class="st0" d="M52,31.4L41.2,61.1L40,54.7l0,0l-3.8-19.4c0,0-0.5-3.9-5.3-3.9H13.1l-0.2,0.7c0,0,5.4,1.1,11.8,4.9l9.8,37.5
			h11.7l17.9-43.2H52z"/>
		<path class="st0" d="M140.4,74.6h10.3l-9-43.2h-9c-4.2,0-5.2,3.2-5.2,3.2l-16.8,40h11.7l2.3-6.4h14.3L140.4,74.6z M128,59.3
			l5.9-16.2l3.3,16.2H128z"/>
		<path class="st0" d="M111.6,41.8l1.6-9.3c0,0-5-1.9-10.1-1.9c-5.6,0-18.8,2.4-18.8,14.3c0,11.2,15.6,11.3,15.6,17.2
			s-13.9,4.8-18.5,1.1l-1.7,9.7c0,0,5,2.4,12.7,2.4c7.7,0,19.2-4,19.2-14.8c0-11.2-15.7-12.3-15.7-17.2
			C95.8,38.5,106.8,39.1,111.6,41.8z"/>
	</g>
</g>
</svg>
